<svg viewBox="0 0 131.528 14" xmlns="http://www.w3.org/2000/svg">
  <path d="M4.98 8.28 0 0h2.98l3.34 5.74h.04L9.7 0h2.98L7.7 8.28V14H4.98zm7.69 3.42V2.3l2.3-2.3h7.2l2.3 2.3v9.4l-2.3 2.3h-7.2zm8.06-.02 1.02-1.02V3.34l-1.02-1.02h-4.32l-1.02 1.02v7.32l1.02 1.02zm5.644-.08V0h2.72v10.66l1.02 1.02h3.92l1.02-1.02V0h2.72v11.6l-2.4 2.4h-6.6zm24.504-2.24V14h-2.72V9.98l-1.2-1.34h-4.36V14h-2.72V0h8.78l2.14 2.16V6.4l-1.36 1.38zm-8.28-2.96h4.82l.7-.7V2.98l-.7-.7h-4.82zM57.823 0h10.12v2.3h-7.4v3.54h6.82V8.1h-6.82v3.6h7.4V14h-10.12zm11.629 0h2.44l6.24 9.5h.04V0h2.62v14h-2.44l-6.24-9.48h-.04V14h-2.62zm13.446 0h10.12v2.3h-7.4v3.54h6.82V8.1h-6.82v3.6h7.4V14h-10.12zm22.629 9.36V14h-2.72V9.98l-1.2-1.34h-4.36V14h-2.72V0h8.78l2.14 2.16V6.4l-1.36 1.38zm-8.28-2.96h4.82l.7-.7V2.98l-.7-.7h-4.82zm10.076 5.3V2.3l2.3-2.3h6.96l2.26 2.26V4.4h-2.72V3.26l-.94-.94h-4.12l-1.02 1.02v7.32l1.02 1.02h4.16l.98-.98V8.52h-3V6.2h5.64v5.5l-2.3 2.3h-6.92zm16.505-3.42L118.848 0h2.98l3.34 5.74h.04l3.34-5.74h2.98l-4.98 8.28V14h-2.72z" fill="currentColor"/>
</svg>